<?xml version="1.0" encoding="UTF-8"?><svg id="uuid-4107b2b2-c2c1-4041-8db7-9f2e7c7fdb22" xmlns="http://www.w3.org/2000/svg" viewBox="0 0 26.61 26.59"><path d="M25.29,9.97c-2.57-3.04-6.14-5.75-8.8-8.77C15.28.2,13.98-.15,12.4.06c-.64.09-1.51.53-2.01.94C7.63,4.18,3.72,7.06,1.08,10.27c-1.45,1.76-1.42,4.13-.05,5.93,3.06,2.67,5.76,6.25,8.79,8.88,1.97,1.71,4.36,2.12,6.51.4,3.16-2.53,6.02-6.46,9.16-9.12,1.59-2,1.42-4.47-.2-6.39ZM14.51,23.36c-1.06.79-1.91.4-2.8-.35-2.97-2.52-5.52-5.99-8.49-8.57-.6-.78-.53-1.62.06-2.38.73-.96,3.6-3.8,4.57-4.57.24-.19.48-.37.79-.43,1.8-.33,3.2,1.68,2.06,3.17-.52.69-2.49,2.18-2.62,2.87-.07.38.11.65.33.94,1.67,2.16,4.59,4.17,6.36,6.33.81.99.83,2.18-.26,2.99ZM14.86,14.58c-1.37,1.64-3.96.25-3.53-1.8.12-.58.88-1.36,1.48-1.47,1.91-.35,3.36,1.72,2.06,3.27ZM23.41,14.48c-.58.81-3.75,3.93-4.57,4.57-1.94,1.5-4.35-.88-2.75-2.94.51-.66,2.02-1.75,2.32-2.35.15-.3.17-.61.04-.92l-6.59-6.62c-1.19-1.18-.34-3.25,1.25-3.43.59-.06,1.11.15,1.55.53,2.54,2.93,6.11,5.57,8.55,8.52.7.84.88,1.7.2,2.64Z" fill="#09f"/></svg>