<?xml version="1.0" encoding="UTF-8"?><svg id="uuid-097fb201-0c96-4371-883b-c72802fd95e2" xmlns="http://www.w3.org/2000/svg" viewBox="0 0 397.38 76.76"><path d="M73.03,28.78c-7.42-8.78-17.72-16.61-25.4-25.32-3.52-2.88-7.27-3.9-11.82-3.29-1.85.25-4.35,1.53-5.81,2.7C22.04,12.08,10.75,20.4,3.13,29.66c-4.19,5.09-4.1,11.92-.14,17.12,8.85,7.7,16.64,18.05,25.39,25.63,5.7,4.94,12.59,6.13,18.8,1.16,9.13-7.3,17.37-18.65,26.44-26.34,4.6-5.77,4.09-12.91-.59-18.45ZM41.89,67.43c-3.06,2.29-5.53,1.14-8.08-1.02-8.58-7.26-15.95-17.29-24.52-24.74-1.73-2.26-1.52-4.67.16-6.88,2.11-2.78,10.4-10.98,13.2-13.18.68-.54,1.39-1.08,2.27-1.25,5.19-.96,9.24,4.84,5.95,9.15-1.51,1.98-7.19,6.31-7.57,8.28-.21,1.11.32,1.88.97,2.71,4.83,6.25,13.26,12.04,18.37,18.28,2.35,2.87,2.4,6.29-.74,8.64ZM42.91,42.1c-3.97,4.73-11.43.73-10.2-5.2.35-1.68,2.53-3.92,4.26-4.24,5.5-1.02,9.69,4.97,5.94,9.44ZM67.59,41.81c-1.68,2.33-10.83,11.35-13.21,13.18-5.61,4.32-12.57-2.53-7.93-8.49,1.48-1.9,5.82-5.06,6.71-6.78.44-.86.5-1.77.11-2.67l-19.02-19.1c-3.43-3.4-.98-9.39,3.61-9.89,1.72-.19,3.19.42,4.47,1.54,7.34,8.46,17.63,16.08,24.67,24.59,2.02,2.43,2.54,4.91.58,7.62Z" fill="#38a8ff"/><path d="M102.48,44.58c0-10.69,5.9-19.33,15.84-19.33,4.97,0,8.78,2.02,11.23,5.69l-.18-4.07c0-.61.32-.9.86-.9h7.09c.54,0,.83.29.83.86l-.32,17.49.32,17.85c0,.58-.29.86-.83.86h-7.05c-.54,0-.86-.29-.83-.86l.11-4.5c-2.48,3.78-6.3,6.05-11.41,6.05-10.22,0-15.66-8.35-15.66-19.15ZM129.76,44.8c.07-8.75-3.24-13.64-9.11-13.68-6.3-.11-9.4,4.9-9.4,12.96,0,8.64,3.13,13.86,9.21,13.82,5.83,0,9.21-4.39,9.29-13.1Z" fill="#fff"/><path d="M143.37,62.18l.36-24.51-.4-24.15c0-.58.29-.86.86-.86h7.06c.54,0,.83.29.83.86l-.4,24.12.4,24.55c0,.58-.29.86-.83.86h-7.06c-.54,0-.83-.29-.83-.86Z" fill="#fff"/><path d="M156.11,44.61c0-11.73,6.62-19.51,18.29-19.51,9.25,0,15.08,4.9,16.05,12.24.11.58-.22.9-.79.9h-6.34c-.5,0-.83-.29-.94-.79-.94-4.36-4.1-6.44-7.99-6.44-6.37.04-9.4,4.79-9.4,13.57s3.06,13.43,9.4,13.5c4.43.04,7.77-2.63,8.39-7.56.07-.54.36-.83.9-.83h6.44c.58,0,.9.29.86.76-.86,7.81-7.2,13.46-16.77,13.46-11.48,0-18.11-7.56-18.11-19.29Z" fill="#fff"/><path d="M194.24,62.18l.4-24.23-.4-24.44c0-.58.29-.86.86-.86h7.05c.54,0,.86.29.86.86l-.32,27.46,12.46-14.54c.25-.32.61-.47,1.04-.47h7.59c.72,0,.97.5.47,1.04l-11.37,12.31,13.35,22.71c.32.58.07,1.04-.61,1.04h-8.17c-.47,0-.79-.22-1.04-.65l-3.28-6.16-6.26-10.69-4.03,4.64.18,11.95c0,.58-.32.86-.86.86h-7.05c-.58,0-.86-.29-.86-.86Z" fill="#fff"/><path d="M224.19,44.58c0-11.7,6.62-19.47,18.32-19.47s18.21,7.6,18.21,19.33-6.55,19.47-18.21,19.47-18.32-7.59-18.32-19.33ZM251.84,44.58c0-8.85-3.1-13.64-9.4-13.64-6.37.07-9.4,4.82-9.4,13.71s3.13,13.43,9.47,13.43,9.32-4.5,9.32-13.5Z" fill="#fff"/><path d="M264.4,62.18l.29-17.89-.29-17.46c0-.58.29-.86.86-.86h6.95c.58,0,.9.29.86.9l-.22,5.83c2.74-4.68,7.63-7.06,12.92-7.06.58,0,1.22.04,1.76.18.5.07.76.43.76.94v4.79c0,.54-.32.83-.9.79-.47-.07-.97-.11-1.51-.11-6.91,0-12.31,3.92-12.81,12.13l.14,17.82c0,.58-.29.86-.86.86h-7.09c-.58,0-.86-.29-.86-.86Z" fill="#fff"/><path d="M287.15,44.58c0-10.69,5.9-19.37,15.84-19.37,4.9,0,8.67,1.98,11.16,5.69l-.18-17.39c0-.58.29-.86.86-.86h7.16c.54,0,.86.29.86.86l-.32,22.82.32,25.88c0,.54-.32.86-.86.86h-7.09c-.54,0-.86-.32-.86-.9l.18-4.46c-2.48,3.74-6.33,6.05-11.41,6.05-10.22,0-15.66-8.39-15.66-19.19ZM314.44,44.87c.07-8.82-3.24-13.79-9.11-13.86-6.3-.11-9.39,5-9.39,13.14,0,8.64,3.13,13.86,9.21,13.82,5.76,0,9.21-4.39,9.29-13.1Z" fill="#fff"/><path d="M326.5,44.61c0-11.66,6.7-19.51,18.07-19.51s17.89,7.56,18.21,20.01c0,.58-.32.86-.86.86h-26.67c.29,8.35,3.71,12.09,9.72,12.09,4.5,0,7.38-2.02,8.5-5.58.18-.5.47-.72.97-.72h6.59c.58,0,.94.22.86.61-1.08,6.3-7.09,11.52-17.03,11.52-11.95,0-18.36-7.99-18.36-19.29ZM353.43,40.37c-.32-5.04-3.1-9.47-8.78-9.47-5.29,0-8.32,3.38-9.18,9.47h17.96Z" fill="#fff"/><path d="M361.75,25.97h7.59c.5,0,.83.25.97.72l6.84,22.07,2.3,7.63,2.48-7.59,7.27-22.1c.11-.47.47-.72.97-.72h6.44c.61,0,.9.4.68,1.01l-12.56,35.56c-.18.47-.47.68-.97.68h-9.21c-.5,0-.79-.22-.97-.68l-12.53-35.56c-.22-.61.07-1.01.68-1.01Z" fill="#fff"/></svg>