<?xml version="1.0" encoding="UTF-8"?><svg id="uuid-21b6099c-e51f-49c2-b638-b024eadbc376" xmlns="http://www.w3.org/2000/svg" viewBox="0 0 140.59 26.59"><path d="M25.29,9.97c-2.57-3.04-6.14-5.75-8.8-8.77C15.28.2,13.98-.15,12.4.06c-.64.09-1.51.53-2.01.94C7.63,4.18,3.72,7.06,1.08,10.27c-1.45,1.76-1.42,4.13-.05,5.93,3.06,2.67,5.76,6.25,8.79,8.88,1.97,1.71,4.36,2.12,6.51.4,3.16-2.53,6.02-6.46,9.16-9.12,1.59-2,1.42-4.47-.2-6.39ZM14.51,23.36c-1.06.79-1.91.4-2.8-.35-2.97-2.52-5.52-5.99-8.49-8.57-.6-.78-.53-1.62.06-2.38.73-.96,3.6-3.8,4.57-4.57.24-.19.48-.37.79-.43,1.8-.33,3.2,1.68,2.06,3.17-.52.69-2.49,2.18-2.62,2.87-.07.38.11.65.33.94,1.67,2.16,4.59,4.17,6.36,6.33.81.99.83,2.18-.26,2.99ZM14.86,14.58c-1.37,1.64-3.96.25-3.53-1.8.12-.58.88-1.36,1.48-1.47,1.91-.35,3.36,1.72,2.06,3.27ZM23.41,14.48c-.58.81-3.75,3.93-4.57,4.57-1.94,1.5-4.35-.88-2.75-2.94.51-.66,2.02-1.75,2.32-2.35.15-.3.17-.61.04-.92l-6.59-6.62c-1.19-1.18-.34-3.25,1.25-3.43.59-.06,1.11.15,1.55.53,2.54,2.93,6.11,5.57,8.55,8.52.7.84.88,1.7.2,2.64Z" fill="#09f"/><path d="M39.26,21.19c-.88.56-1.86,1.08-3.68,1.08-2.57,0-4.39-1.45-4.39-3.58,0-3.07,2.23-3.92,5.76-4.85.93-.25,1.28-.44,1.28-.76,0-.34-.34-.71-1.47-.71-1.89,0-3.75,1.13-4.14,1.13-.27,0-.42-.17-.42-.42,0-.39.17-1.59.71-2.52.29-.52,1.91-1.28,4.49-1.28,3.75,0,5.52,1.64,5.52,4.93v4.22c0,.76.42,1.05.96,1.05h.05c.39,0,.59.22.59.49,0,.66-1.59,2.3-3.04,2.3-.86,0-2.21-1.08-2.21-1.08ZM37,19.5c.76,0,1.25-.44,1.25-.74v-2.43c0-.12-.05-.22-.2-.22-.61,0-1.3.2-1.81.56-.51.34-.88.83-.88,1.42,0,.88.64,1.4,1.64,1.4Z" fill="#dee2e6"/><path d="M45.24,19.35V5.13c0-.39.59-.76,2.33-.76s2.33.37,2.33.76v13.29c0,.76.42,1.05.96,1.05h.1c.37,0,.54.22.54.49,0,.66-1.59,2.3-3.04,2.3-2.11,0-3.21-1.1-3.21-2.92Z" fill="#dee2e6"/><path d="M51.74,16.17c0-4.88,3.56-6.89,7.14-6.89,2.77,0,3.83,1.05,3.83,1.52,0,.56-1.08,2.13-1.57,2.13-.39,0-1.01-.56-2.28-.56-.91,0-2.35.66-2.35,3.33,0,2.5,1.45,3.36,3.21,3.36,2.06,0,2.89-.98,3.31-.98.15,0,.29.1.29.34,0,.61-.22,1.91-.66,2.58-.42.64-1.99,1.28-3.78,1.28-3.95,0-7.14-2.11-7.14-6.11Z" fill="#dee2e6"/><path d="M64.3,21.27V5.13c0-.39.59-.76,2.33-.76s2.33.37,2.33.76v7.94s1.59-1.15,2.5-2.97c.2-.39.34-.59.76-.59h3.31c.27,0,.42.12.42.34,0,.25-.12.56-.34.98-.64,1.23-1.54,2.7-3.02,4.07.86.93,1.35,1.74,2.67,3.73.49.74.76.96,1.59.96h.1c.29,0,.47.2.47.49,0,.54-2.13,2.18-3.56,2.18-.98,0-1.54-.66-2.01-1.42-1.23-2.01-1.86-2.99-2.43-3.7-.15.1-.32.17-.47.25v3.87c0,.39-.59.76-2.33.76s-2.33-.37-2.33-.76Z" fill="#dee2e6"/><path d="M76.93,15.73c0-4.36,3.24-6.45,7.04-6.45s7.01,2.08,7.01,6.45-3.24,6.55-7.01,6.55-7.04-2.16-7.04-6.55ZM86.19,15.73c0-3.02-1.18-3.55-2.23-3.55s-2.26.54-2.26,3.55,1.2,3.58,2.26,3.58,2.23-.56,2.23-3.58Z" fill="#dee2e6"/><path d="M92.03,21.27v-7.85c0-.93-.69-1.37-.69-1.84,0-.74,2.4-2.3,3.46-2.3.61,0,.96.22,1.62,1.3,0,0,.86-1.3,2.45-1.3,1.25,0,2.3.61,2.3,1.03,0,.34-1.32,2.21-1.84,2.72-.17.17-.25.25-.42.25-.37,0-.56-.51-1.23-.51-.59,0-1.01.37-1.01,1.08v7.43c0,.39-.59.76-2.33.76s-2.33-.37-2.33-.76Z" fill="#dee2e6"/><path d="M100.69,16.49c0-5.79,4.07-7.21,6.35-7.21,1.03,0,1.69.37,1.69.37v-4.51c0-.39.59-.76,2.33-.76s2.33.37,2.33.76v13.29c0,.76.42,1.05.96,1.05h.07c.39,0,.56.22.56.49,0,.66-1.59,2.3-3.04,2.3-.86,0-2.21-1.08-2.21-1.08,0,.02-1.15,1.08-3.26,1.08-3.02,0-5.79-1.94-5.79-5.79ZM108.73,12.81c0-.42-.37-.76-.88-.76-1.13,0-2.4,1.13-2.4,4.1,0,2.28.93,3.29,1.96,3.29.69,0,1.32-.47,1.32-1.08v-5.54Z" fill="#dee2e6"/><path d="M114.74,16.05c0-4.76,3.38-6.77,6.79-6.77,3.58,0,5.37,1.54,5.37,3.63,0,3.26-4.02,4.61-6.91,4.78.69,1.08,2.01,1.37,3.04,1.37,1.81,0,2.89-1.23,3.31-1.23.15,0,.29.1.29.34,0,.39-.17,1.86-.47,2.6-.2.52-1.64,1.5-4.27,1.5-4.34,0-7.16-2.26-7.16-6.23ZM119.5,15.48c1.55-.39,2.87-1.23,2.87-2.84,0-.51-.34-.78-.78-.78-.71,0-1.96.76-2.08,3.63Z" fill="#dee2e6"/><path d="M127.88,18.18v-7.9c0-.39.59-.76,2.33-.76s2.33.37,2.33.76v7.01c0,1.15.74,1.79,1.42,1.79.91,0,1.96-1.35,1.96-4.17,0-3.16-.88-4.05-.88-4.66,0-.44.78-.74,1.84-.74,1.55,0,2.67.39,2.99,1.03.54,1.05.73,2.65.71,4.07-.05,3.95-2.82,7.65-7.36,7.65-2.4,0-5.35-1.52-5.35-4.1Z" fill="#dee2e6"/></svg>